<?xml version="1.0" encoding="UTF-8"?>
<svg xmlns="http://www.w3.org/2000/svg" width="1280" height="960" viewBox="0 0 1280 960">
<defs>
<marker id="crow-many" viewBox="0 0 12 12" refX="10" refY="6" markerWidth="8" markerHeight="8" orient="auto">
  <path d="M0,0 L8,6 L0,12 M4,2 L12,6 L4,10" fill="none" stroke="#6B6B6B" stroke-width="1.2"/>
</marker>
<marker id="crow-one" viewBox="0 0 10 14" refX="2" refY="7" markerWidth="5" markerHeight="7" orient="auto">
  <line x1="2" y1="0" x2="2" y2="14" stroke="#6B6B6B" stroke-width="2"/>
</marker>
</defs>
<rect width="1280" height="960" fill="#F5F6FA"/>
<text x="640.0" y="28" text-anchor="middle" font-size="20" font-weight="bold" fill="#1A237E" font-family="Microsoft YaHei, SimHei, sans-serif">毕业设计管理系统 — 数据库 ER 图 (PowerDesigner PDM 风格)</text>
<text x="640.0" y="46" text-anchor="middle" font-size="11" fill="#888" font-family="Microsoft YaHei, SimHei, sans-serif">题目37 · 12 张表 · 10 条引用关系</text>
<path d="M 270 289.0 L 282 289.0 L 282 99.0 L 30 99.0" fill="none" stroke="#6B6B6B" stroke-width="1.5"/>
<text x="250" y="188.0" text-anchor="middle" font-size="10" fill="#C0392B" font-weight="bold" font-family="Microsoft YaHei, SimHei, sans-serif">N:1</text>
<text x="250" y="204.0" text-anchor="middle" font-size="10" fill="#2471A3" font-family="Microsoft YaHei, SimHei, sans-serif">所属</text>
<path d="M 270 454.0 L 282 454.0 L 282 249.0 L 30 249.0" fill="none" stroke="#6B6B6B" stroke-width="1.5"/>
<text x="250" y="345.5" text-anchor="middle" font-size="10" fill="#C0392B" font-weight="bold" font-family="Microsoft YaHei, SimHei, sans-serif">N:1</text>
<text x="250" y="361.5" text-anchor="middle" font-size="10" fill="#2471A3" font-family="Microsoft YaHei, SimHei, sans-serif">下设</text>
<path d="M 270 654.0 L 282 654.0 L 282 414.0 L 30 414.0" fill="none" stroke="#6B6B6B" stroke-width="1.5"/>
<text x="250" y="528.0" text-anchor="middle" font-size="10" fill="#C0392B" font-weight="bold" font-family="Microsoft YaHei, SimHei, sans-serif">N:1</text>
<text x="250" y="544.0" text-anchor="middle" font-size="10" fill="#2471A3" font-family="Microsoft YaHei, SimHei, sans-serif">属于</text>
<path d="M 890 159.0 L 902 159.0 L 902 99.0 L 30 99.0" fill="none" stroke="#6B6B6B" stroke-width="1.5"/>
<text x="870" y="123.0" text-anchor="middle" font-size="10" fill="#C0392B" font-weight="bold" font-family="Microsoft YaHei, SimHei, sans-serif">N:1</text>
<text x="870" y="139.0" text-anchor="middle" font-size="10" fill="#2471A3" font-family="Microsoft YaHei, SimHei, sans-serif">聘用</text>
<path d="M 890 494.0 L 902 494.0 L 902 99.0 L 650 99.0" fill="none" stroke="#6B6B6B" stroke-width="1.5"/>
<text x="870" y="290.5" text-anchor="middle" font-size="10" fill="#C0392B" font-weight="bold" font-family="Microsoft YaHei, SimHei, sans-serif">N:1</text>
<text x="870" y="306.5" text-anchor="middle" font-size="10" fill="#2471A3" font-family="Microsoft YaHei, SimHei, sans-serif">发布</text>
<path d="M 590 564.0 L 602 564.0 L 602 594.0 L 30 594.0" fill="none" stroke="#6B6B6B" stroke-width="1.5"/>
<text x="570" y="573.0" text-anchor="middle" font-size="10" fill="#C0392B" font-weight="bold" font-family="Microsoft YaHei, SimHei, sans-serif">1:1</text>
<text x="570" y="589.0" text-anchor="middle" font-size="10" fill="#2471A3" font-family="Microsoft YaHei, SimHei, sans-serif">选题</text>
<path d="M 590 584.0 L 602 584.0 L 602 434.0 L 650 434.0" fill="none" stroke="#6B6B6B" stroke-width="1.5"/>
<text x="610" y="503.0" text-anchor="middle" font-size="10" fill="#C0392B" font-weight="bold" font-family="Microsoft YaHei, SimHei, sans-serif">N:1</text>
<text x="610" y="519.0" text-anchor="middle" font-size="10" fill="#2471A3" font-family="Microsoft YaHei, SimHei, sans-serif">被选</text>
<path d="M 590 744.0 L 602 744.0 L 602 544.0 L 350 544.0" fill="none" stroke="#6B6B6B" stroke-width="1.5"/>
<text x="570" y="638.0" text-anchor="middle" font-size="10" fill="#C0392B" font-weight="bold" font-family="Microsoft YaHei, SimHei, sans-serif">1:N</text>
<text x="570" y="654.0" text-anchor="middle" font-size="10" fill="#2471A3" font-family="Microsoft YaHei, SimHei, sans-serif">提交</text>
<path d="M 890 744.0 L 902 744.0 L 902 724.0 L 350 724.0" fill="none" stroke="#6B6B6B" stroke-width="1.5"/>
<text x="870" y="728.0" text-anchor="middle" font-size="10" fill="#C0392B" font-weight="bold" font-family="Microsoft YaHei, SimHei, sans-serif">1:1</text>
<text x="870" y="744.0" text-anchor="middle" font-size="10" fill="#2471A3" font-family="Microsoft YaHei, SimHei, sans-serif">审阅</text>
<path d="M 890 764.0 L 902 764.0 L 902 99.0 L 650 99.0" fill="none" stroke="#6B6B6B" stroke-width="1.5"/>
<text x="870" y="425.5" text-anchor="middle" font-size="10" fill="#C0392B" font-weight="bold" font-family="Microsoft YaHei, SimHei, sans-serif">N:1</text>
<text x="870" y="441.5" text-anchor="middle" font-size="10" fill="#2471A3" font-family="Microsoft YaHei, SimHei, sans-serif">评审</text>
<rect x="30" y="55" width="240" height="98" rx="5" ry="5" fill="#FFFFFF" stroke="#1A3A5C" stroke-width="1.5"/>
<rect x="30" y="55" width="240" height="32" rx="5" ry="5" fill="#2B579A" stroke="#1A3A5C" stroke-width="1.5"/>
<rect x="30" y="82" width="240" height="6" fill="#2B579A"/>
<text x="150.0" y="75.0" text-anchor="middle" font-size="12" font-weight="bold" fill="#FFFFFF" font-family="Microsoft YaHei, SimHei, sans-serif">系 (Department)</text>
<line x1="30" y1="87" x2="270" y2="87" stroke="#2B579A" stroke-width="2"/>
<rect x="32" y="88" width="236" height="20" fill="#F0F4FA" rx="1"/>
<text x="38" y="103" font-size="10" fill="#1A1A1A" font-family="Consolas, Courier New, monospace" font-weight="bold">dept_id  <tspan fill="#888" font-weight="normal">INT</tspan>  <tspan fill="#2B579A">[PK]</tspan></text>
<rect x="32" y="108" width="236" height="20" fill="#FFF8E1" rx="1"/>
<text x="38" y="123" font-size="10" fill="#1A1A1A" font-family="Consolas, Courier New, monospace">dept_name  <tspan fill="#888">VARCHAR(50)</tspan>  <tspan fill="#E67E22">[FK]</tspan></text>
<text x="38" y="143" font-size="10" fill="#1A1A1A" font-family="Consolas, Courier New, monospace">created_at  <tspan fill="#888">DATETIME</tspan></text>
<rect x="30" y="205" width="240" height="118" rx="5" ry="5" fill="#FFFFFF" stroke="#1A3A5C" stroke-width="1.5"/>
<rect x="30" y="205" width="240" height="32" rx="5" ry="5" fill="#2B579A" stroke="#1A3A5C" stroke-width="1.5"/>
<rect x="30" y="232" width="240" height="6" fill="#2B579A"/>
<text x="150.0" y="225.0" text-anchor="middle" font-size="12" font-weight="bold" fill="#FFFFFF" font-family="Microsoft YaHei, SimHei, sans-serif">专业 (Major)</text>
<line x1="30" y1="237" x2="270" y2="237" stroke="#2B579A" stroke-width="2"/>
<rect x="32" y="238" width="236" height="20" fill="#F0F4FA" rx="1"/>
<text x="38" y="253" font-size="10" fill="#1A1A1A" font-family="Consolas, Courier New, monospace" font-weight="bold">major_id  <tspan fill="#888" font-weight="normal">INT</tspan>  <tspan fill="#2B579A">[PK]</tspan></text>
<text x="38" y="273" font-size="10" fill="#1A1A1A" font-family="Consolas, Courier New, monospace">major_name  <tspan fill="#888">VARCHAR(50)</tspan></text>
<rect x="32" y="278" width="236" height="20" fill="#FFF8E1" rx="1"/>
<text x="38" y="293" font-size="10" fill="#1A1A1A" font-family="Consolas, Courier New, monospace">dept_id  <tspan fill="#888">INT</tspan>  <tspan fill="#E67E22">[FK]</tspan></text>
<text x="38" y="313" font-size="10" fill="#1A1A1A" font-family="Consolas, Courier New, monospace">created_at  <tspan fill="#888">DATETIME</tspan></text>
<rect x="30" y="370" width="240" height="138" rx="5" ry="5" fill="#FFFFFF" stroke="#1A3A5C" stroke-width="1.5"/>
<rect x="30" y="370" width="240" height="32" rx="5" ry="5" fill="#2B579A" stroke="#1A3A5C" stroke-width="1.5"/>
<rect x="30" y="397" width="240" height="6" fill="#2B579A"/>
<text x="150.0" y="390.0" text-anchor="middle" font-size="12" font-weight="bold" fill="#FFFFFF" font-family="Microsoft YaHei, SimHei, sans-serif">班级 (Class)</text>
<line x1="30" y1="402" x2="270" y2="402" stroke="#2B579A" stroke-width="2"/>
<rect x="32" y="403" width="236" height="20" fill="#F0F4FA" rx="1"/>
<text x="38" y="418" font-size="10" fill="#1A1A1A" font-family="Consolas, Courier New, monospace" font-weight="bold">class_id  <tspan fill="#888" font-weight="normal">INT</tspan>  <tspan fill="#2B579A">[PK]</tspan></text>
<text x="38" y="438" font-size="10" fill="#1A1A1A" font-family="Consolas, Courier New, monospace">class_name  <tspan fill="#888">VARCHAR(50)</tspan></text>
<rect x="32" y="443" width="236" height="20" fill="#FFF8E1" rx="1"/>
<text x="38" y="458" font-size="10" fill="#1A1A1A" font-family="Consolas, Courier New, monospace">major_id  <tspan fill="#888">INT</tspan>  <tspan fill="#E67E22">[FK]</tspan></text>
<text x="38" y="478" font-size="10" fill="#1A1A1A" font-family="Consolas, Courier New, monospace">grade  <tspan fill="#888">VARCHAR(10)</tspan></text>
<text x="38" y="498" font-size="10" fill="#1A1A1A" font-family="Consolas, Courier New, monospace">created_at  <tspan fill="#888">DATETIME</tspan></text>
<rect x="30" y="550" width="240" height="178" rx="5" ry="5" fill="#FFFFFF" stroke="#1A3A5C" stroke-width="1.5"/>
<rect x="30" y="550" width="240" height="32" rx="5" ry="5" fill="#2B579A" stroke="#1A3A5C" stroke-width="1.5"/>
<rect x="30" y="577" width="240" height="6" fill="#2B579A"/>
<text x="150.0" y="570.0" text-anchor="middle" font-size="12" font-weight="bold" fill="#FFFFFF" font-family="Microsoft YaHei, SimHei, sans-serif">学生 (Student)</text>
<line x1="30" y1="582" x2="270" y2="582" stroke="#2B579A" stroke-width="2"/>
<rect x="32" y="583" width="236" height="20" fill="#F0F4FA" rx="1"/>
<text x="38" y="598" font-size="10" fill="#1A1A1A" font-family="Consolas, Courier New, monospace" font-weight="bold">stu_id  <tspan fill="#888" font-weight="normal">VARCHAR(20)</tspan>  <tspan fill="#2B579A">[PK]</tspan></text>
<text x="38" y="618" font-size="10" fill="#1A1A1A" font-family="Consolas, Courier New, monospace">stu_name  <tspan fill="#888">VARCHAR(30)</tspan></text>
<text x="38" y="638" font-size="10" fill="#1A1A1A" font-family="Consolas, Courier New, monospace">password  <tspan fill="#888">VARCHAR(255)</tspan></text>
<rect x="32" y="643" width="236" height="20" fill="#FFF8E1" rx="1"/>
<text x="38" y="658" font-size="10" fill="#1A1A1A" font-family="Consolas, Courier New, monospace">class_id  <tspan fill="#888">INT</tspan>  <tspan fill="#E67E22">[FK]</tspan></text>
<text x="38" y="678" font-size="10" fill="#1A1A1A" font-family="Consolas, Courier New, monospace">phone  <tspan fill="#888">VARCHAR(20)</tspan></text>
<text x="38" y="698" font-size="10" fill="#1A1A1A" font-family="Consolas, Courier New, monospace">email  <tspan fill="#888">VARCHAR(100)</tspan></text>
<text x="38" y="718" font-size="10" fill="#1A1A1A" font-family="Consolas, Courier New, monospace">created_at  <tspan fill="#888">DATETIME</tspan></text>
<rect x="350" y="500" width="240" height="178" rx="5" ry="5" fill="#FFFFFF" stroke="#1A3A5C" stroke-width="1.5"/>
<rect x="350" y="500" width="240" height="32" rx="5" ry="5" fill="#2B579A" stroke="#1A3A5C" stroke-width="1.5"/>
<rect x="350" y="527" width="240" height="6" fill="#2B579A"/>
<text x="470.0" y="520.0" text-anchor="middle" font-size="12" font-weight="bold" fill="#FFFFFF" font-family="Microsoft YaHei, SimHei, sans-serif">选题 (Selection)</text>
<line x1="350" y1="532" x2="590" y2="532" stroke="#2B579A" stroke-width="2"/>
<rect x="352" y="533" width="236" height="20" fill="#F0F4FA" rx="1"/>
<text x="358" y="548" font-size="10" fill="#1A1A1A" font-family="Consolas, Courier New, monospace" font-weight="bold">selection_id  <tspan fill="#888" font-weight="normal">INT</tspan>  <tspan fill="#2B579A">[PK]</tspan></text>
<rect x="352" y="553" width="236" height="20" fill="#FFF8E1" rx="1"/>
<text x="358" y="568" font-size="10" fill="#1A1A1A" font-family="Consolas, Courier New, monospace">stu_id  <tspan fill="#888">VARCHAR(20)</tspan>  <tspan fill="#E67E22">[FK]</tspan></text>
<rect x="352" y="573" width="236" height="20" fill="#FFF8E1" rx="1"/>
<text x="358" y="588" font-size="10" fill="#1A1A1A" font-family="Consolas, Courier New, monospace">topic_id  <tspan fill="#888">INT</tspan>  <tspan fill="#E67E22">[FK]</tspan></text>
<text x="358" y="608" font-size="10" fill="#1A1A1A" font-family="Consolas, Courier New, monospace">select_time  <tspan fill="#888">DATETIME</tspan></text>
<text x="358" y="628" font-size="10" fill="#1A1A1A" font-family="Consolas, Courier New, monospace">status  <tspan fill="#888">VARCHAR(20)</tspan></text>
<text x="358" y="648" font-size="10" fill="#1A1A1A" font-family="Consolas, Courier New, monospace">final_score  <tspan fill="#888">DECIMAL(5,2)</tspan></text>
<text x="358" y="668" font-size="10" fill="#1A1A1A" font-family="Consolas, Courier New, monospace">completed_at  <tspan fill="#888">DATETIME</tspan></text>
<rect x="350" y="680" width="240" height="198" rx="5" ry="5" fill="#FFFFFF" stroke="#1A3A5C" stroke-width="1.5"/>
<rect x="350" y="680" width="240" height="32" rx="5" ry="5" fill="#2B579A" stroke="#1A3A5C" stroke-width="1.5"/>
<rect x="350" y="707" width="240" height="6" fill="#2B579A"/>
<text x="470.0" y="700.0" text-anchor="middle" font-size="12" font-weight="bold" fill="#FFFFFF" font-family="Microsoft YaHei, SimHei, sans-serif">文档提交 (Submission)</text>
<line x1="350" y1="712" x2="590" y2="712" stroke="#2B579A" stroke-width="2"/>
<rect x="352" y="713" width="236" height="20" fill="#F0F4FA" rx="1"/>
<text x="358" y="728" font-size="10" fill="#1A1A1A" font-family="Consolas, Courier New, monospace" font-weight="bold">submission_id  <tspan fill="#888" font-weight="normal">INT</tspan>  <tspan fill="#2B579A">[PK]</tspan></text>
<rect x="352" y="733" width="236" height="20" fill="#FFF8E1" rx="1"/>
<text x="358" y="748" font-size="10" fill="#1A1A1A" font-family="Consolas, Courier New, monospace">selection_id  <tspan fill="#888">INT</tspan>  <tspan fill="#E67E22">[FK]</tspan></text>
<text x="358" y="768" font-size="10" fill="#1A1A1A" font-family="Consolas, Courier New, monospace">stage  <tspan fill="#888">VARCHAR(20)</tspan></text>
<text x="358" y="788" font-size="10" fill="#1A1A1A" font-family="Consolas, Courier New, monospace">file_path  <tspan fill="#888">VARCHAR(500)</tspan></text>
<text x="358" y="808" font-size="10" fill="#1A1A1A" font-family="Consolas, Courier New, monospace">description  <tspan fill="#888">TEXT</tspan></text>
<text x="358" y="828" font-size="10" fill="#1A1A1A" font-family="Consolas, Courier New, monospace">submit_time  <tspan fill="#888">DATETIME</tspan></text>
<text x="358" y="848" font-size="10" fill="#1A1A1A" font-family="Consolas, Courier New, monospace">status  <tspan fill="#888">VARCHAR(20)</tspan></text>
<text x="358" y="868" font-size="10" fill="#1A1A1A" font-family="Consolas, Courier New, monospace">version  <tspan fill="#888">INT</tspan></text>
<rect x="650" y="55" width="240" height="238" rx="5" ry="5" fill="#FFFFFF" stroke="#1A3A5C" stroke-width="1.5"/>
<rect x="650" y="55" width="240" height="32" rx="5" ry="5" fill="#2B579A" stroke="#1A3A5C" stroke-width="1.5"/>
<rect x="650" y="82" width="240" height="6" fill="#2B579A"/>
<text x="770.0" y="75.0" text-anchor="middle" font-size="12" font-weight="bold" fill="#FFFFFF" font-family="Microsoft YaHei, SimHei, sans-serif">教师 (Teacher)</text>
<line x1="650" y1="87" x2="890" y2="87" stroke="#2B579A" stroke-width="2"/>
<rect x="652" y="88" width="236" height="20" fill="#F0F4FA" rx="1"/>
<text x="658" y="103" font-size="10" fill="#1A1A1A" font-family="Consolas, Courier New, monospace" font-weight="bold">teacher_id  <tspan fill="#888" font-weight="normal">VARCHAR(20)</tspan>  <tspan fill="#2B579A">[PK]</tspan></text>
<text x="658" y="123" font-size="10" fill="#1A1A1A" font-family="Consolas, Courier New, monospace">teacher_name  <tspan fill="#888">VARCHAR(30)</tspan></text>
<text x="658" y="143" font-size="10" fill="#1A1A1A" font-family="Consolas, Courier New, monospace">password  <tspan fill="#888">VARCHAR(255)</tspan></text>
<rect x="652" y="148" width="236" height="20" fill="#FFF8E1" rx="1"/>
<text x="658" y="163" font-size="10" fill="#1A1A1A" font-family="Consolas, Courier New, monospace">dept_id  <tspan fill="#888">INT</tspan>  <tspan fill="#E67E22">[FK]</tspan></text>
<text x="658" y="183" font-size="10" fill="#1A1A1A" font-family="Consolas, Courier New, monospace">title  <tspan fill="#888">VARCHAR(30)</tspan></text>
<text x="658" y="203" font-size="10" fill="#1A1A1A" font-family="Consolas, Courier New, monospace">research_direction  <tspan fill="#888">VARCHAR(200)</tspan></text>
<text x="658" y="223" font-size="10" fill="#1A1A1A" font-family="Consolas, Courier New, monospace">phone  <tspan fill="#888">VARCHAR(20)</tspan></text>
<text x="658" y="243" font-size="10" fill="#1A1A1A" font-family="Consolas, Courier New, monospace">email  <tspan fill="#888">VARCHAR(100)</tspan></text>
<text x="658" y="263" font-size="10" fill="#1A1A1A" font-family="Consolas, Courier New, monospace">max_students  <tspan fill="#888">INT</tspan></text>
<text x="658" y="283" font-size="10" fill="#1A1A1A" font-family="Consolas, Courier New, monospace">created_at  <tspan fill="#888">DATETIME</tspan></text>
<rect x="650" y="390" width="240" height="198" rx="5" ry="5" fill="#FFFFFF" stroke="#1A3A5C" stroke-width="1.5"/>
<rect x="650" y="390" width="240" height="32" rx="5" ry="5" fill="#2B579A" stroke="#1A3A5C" stroke-width="1.5"/>
<rect x="650" y="417" width="240" height="6" fill="#2B579A"/>
<text x="770.0" y="410.0" text-anchor="middle" font-size="12" font-weight="bold" fill="#FFFFFF" font-family="Microsoft YaHei, SimHei, sans-serif">题目 (Topic)</text>
<line x1="650" y1="422" x2="890" y2="422" stroke="#2B579A" stroke-width="2"/>
<rect x="652" y="423" width="236" height="20" fill="#F0F4FA" rx="1"/>
<text x="658" y="438" font-size="10" fill="#1A1A1A" font-family="Consolas, Courier New, monospace" font-weight="bold">topic_id  <tspan fill="#888" font-weight="normal">INT</tspan>  <tspan fill="#2B579A">[PK]</tspan></text>
<text x="658" y="458" font-size="10" fill="#1A1A1A" font-family="Consolas, Courier New, monospace">title  <tspan fill="#888">VARCHAR(200)</tspan></text>
<text x="658" y="478" font-size="10" fill="#1A1A1A" font-family="Consolas, Courier New, monospace">description  <tspan fill="#888">TEXT</tspan></text>
<rect x="652" y="483" width="236" height="20" fill="#FFF8E1" rx="1"/>
<text x="658" y="498" font-size="10" fill="#1A1A1A" font-family="Consolas, Courier New, monospace">teacher_id  <tspan fill="#888">VARCHAR(20)</tspan>  <tspan fill="#E67E22">[FK]</tspan></text>
<text x="658" y="518" font-size="10" fill="#1A1A1A" font-family="Consolas, Courier New, monospace">direction  <tspan fill="#888">VARCHAR(100)</tspan></text>
<text x="658" y="538" font-size="10" fill="#1A1A1A" font-family="Consolas, Courier New, monospace">status  <tspan fill="#888">TINYINT</tspan></text>
<text x="658" y="558" font-size="10" fill="#1A1A1A" font-family="Consolas, Courier New, monospace">max_select  <tspan fill="#888">INT</tspan></text>
<text x="658" y="578" font-size="10" fill="#1A1A1A" font-family="Consolas, Courier New, monospace">created_at  <tspan fill="#888">DATETIME</tspan></text>
<rect x="650" y="680" width="240" height="158" rx="5" ry="5" fill="#FFFFFF" stroke="#1A3A5C" stroke-width="1.5"/>
<rect x="650" y="680" width="240" height="32" rx="5" ry="5" fill="#2B579A" stroke="#1A3A5C" stroke-width="1.5"/>
<rect x="650" y="707" width="240" height="6" fill="#2B579A"/>
<text x="770.0" y="700.0" text-anchor="middle" font-size="12" font-weight="bold" fill="#FFFFFF" font-family="Microsoft YaHei, SimHei, sans-serif">审阅 (Review)</text>
<line x1="650" y1="712" x2="890" y2="712" stroke="#2B579A" stroke-width="2"/>
<rect x="652" y="713" width="236" height="20" fill="#F0F4FA" rx="1"/>
<text x="658" y="728" font-size="10" fill="#1A1A1A" font-family="Consolas, Courier New, monospace" font-weight="bold">review_id  <tspan fill="#888" font-weight="normal">INT</tspan>  <tspan fill="#2B579A">[PK]</tspan></text>
<rect x="652" y="733" width="236" height="20" fill="#FFF8E1" rx="1"/>
<text x="658" y="748" font-size="10" fill="#1A1A1A" font-family="Consolas, Courier New, monospace">submission_id  <tspan fill="#888">INT</tspan>  <tspan fill="#E67E22">[FK]</tspan></text>
<rect x="652" y="753" width="236" height="20" fill="#FFF8E1" rx="1"/>
<text x="658" y="768" font-size="10" fill="#1A1A1A" font-family="Consolas, Courier New, monospace">teacher_id  <tspan fill="#888">VARCHAR(20)</tspan>  <tspan fill="#E67E22">[FK]</tspan></text>
<text x="658" y="788" font-size="10" fill="#1A1A1A" font-family="Consolas, Courier New, monospace">score  <tspan fill="#888">DECIMAL(5,2)</tspan></text>
<text x="658" y="808" font-size="10" fill="#1A1A1A" font-family="Consolas, Courier New, monospace">comment  <tspan fill="#888">TEXT</tspan></text>
<text x="658" y="828" font-size="10" fill="#1A1A1A" font-family="Consolas, Courier New, monospace">review_time  <tspan fill="#888">DATETIME</tspan></text>
<rect x="960" y="55" width="240" height="158" rx="5" ry="5" fill="#FFFFFF" stroke="#1A3A5C" stroke-width="1.5"/>
<rect x="960" y="55" width="240" height="46" rx="5" ry="5" fill="#2B579A" stroke="#1A3A5C" stroke-width="1.5"/>
<rect x="960" y="96" width="240" height="6" fill="#2B579A"/>
<text x="1080.0" y="68.0" text-anchor="middle" font-size="12" font-weight="bold" fill="#FFFFFF" font-family="Microsoft YaHei, SimHei, sans-serif">流程期限</text>
<text x="1080.0" y="82.0" text-anchor="middle" font-size="12" font-weight="bold" fill="#FFFFFF" font-family="Microsoft YaHei, SimHei, sans-serif">(Deadline)</text>
<line x1="960" y1="101" x2="1200" y2="101" stroke="#2B579A" stroke-width="2"/>
<rect x="962" y="88" width="236" height="20" fill="#F0F4FA" rx="1"/>
<text x="968" y="103" font-size="10" fill="#1A1A1A" font-family="Consolas, Courier New, monospace" font-weight="bold">deadline_id  <tspan fill="#888" font-weight="normal">INT</tspan>  <tspan fill="#2B579A">[PK]</tspan></text>
<text x="968" y="123" font-size="10" fill="#1A1A1A" font-family="Consolas, Courier New, monospace">stage  <tspan fill="#888">VARCHAR(20)</tspan></text>
<text x="968" y="143" font-size="10" fill="#1A1A1A" font-family="Consolas, Courier New, monospace">start_date  <tspan fill="#888">DATE</tspan></text>
<text x="968" y="163" font-size="10" fill="#1A1A1A" font-family="Consolas, Courier New, monospace">end_date  <tspan fill="#888">DATE</tspan></text>
<text x="968" y="183" font-size="10" fill="#1A1A1A" font-family="Consolas, Courier New, monospace">description  <tspan fill="#888">VARCHAR(500)</tspan></text>
<text x="968" y="203" font-size="10" fill="#1A1A1A" font-family="Consolas, Courier New, monospace">semester  <tspan fill="#888">VARCHAR(20)</tspan></text>
<rect x="960" y="270" width="240" height="218" rx="5" ry="5" fill="#FFFFFF" stroke="#1A3A5C" stroke-width="1.5"/>
<rect x="960" y="270" width="240" height="46" rx="5" ry="5" fill="#2B579A" stroke="#1A3A5C" stroke-width="1.5"/>
<rect x="960" y="311" width="240" height="6" fill="#2B579A"/>
<text x="1080.0" y="283.0" text-anchor="middle" font-size="12" font-weight="bold" fill="#FFFFFF" font-family="Microsoft YaHei, SimHei, sans-serif">审计日志</text>
<text x="1080.0" y="297.0" text-anchor="middle" font-size="12" font-weight="bold" fill="#FFFFFF" font-family="Microsoft YaHei, SimHei, sans-serif">(AuditLog)</text>
<line x1="960" y1="316" x2="1200" y2="316" stroke="#2B579A" stroke-width="2"/>
<rect x="962" y="303" width="236" height="20" fill="#F0F4FA" rx="1"/>
<text x="968" y="318" font-size="10" fill="#1A1A1A" font-family="Consolas, Courier New, monospace" font-weight="bold">log_id  <tspan fill="#888" font-weight="normal">BIGINT</tspan>  <tspan fill="#2B579A">[PK]</tspan></text>
<text x="968" y="338" font-size="10" fill="#1A1A1A" font-family="Consolas, Courier New, monospace">table_name  <tspan fill="#888">VARCHAR(50)</tspan></text>
<text x="968" y="358" font-size="10" fill="#1A1A1A" font-family="Consolas, Courier New, monospace">operation  <tspan fill="#888">VARCHAR(10)</tspan></text>
<text x="968" y="378" font-size="10" fill="#1A1A1A" font-family="Consolas, Courier New, monospace">record_id  <tspan fill="#888">VARCHAR(50)</tspan></text>
<text x="968" y="398" font-size="10" fill="#1A1A1A" font-family="Consolas, Courier New, monospace">old_value  <tspan fill="#888">JSON</tspan></text>
<text x="968" y="418" font-size="10" fill="#1A1A1A" font-family="Consolas, Courier New, monospace">new_value  <tspan fill="#888">JSON</tspan></text>
<text x="968" y="438" font-size="10" fill="#1A1A1A" font-family="Consolas, Courier New, monospace">operated_by  <tspan fill="#888">VARCHAR(30)</tspan></text>
<rect x="962" y="443" width="236" height="20" fill="#F0F4FA" rx="1"/>
<text x="968" y="458" font-size="10" fill="#1A1A1A" font-family="Consolas, Courier New, monospace" font-weight="bold">operation_time  <tspan fill="#888" font-weight="normal">DATETIME</tspan>  <tspan fill="#2B579A">[PK]</tspan></text>
<text x="968" y="478" font-size="10" fill="#1A1A1A" font-family="Consolas, Courier New, monospace">ip_address  <tspan fill="#888">VARCHAR(50)</tspan></text>
<rect x="960" y="510" width="240" height="158" rx="5" ry="5" fill="#FFFFFF" stroke="#1A3A5C" stroke-width="1.5"/>
<rect x="960" y="510" width="240" height="46" rx="5" ry="5" fill="#2B579A" stroke="#1A3A5C" stroke-width="1.5"/>
<rect x="960" y="551" width="240" height="6" fill="#2B579A"/>
<text x="1080.0" y="523.0" text-anchor="middle" font-size="12" font-weight="bold" fill="#FFFFFF" font-family="Microsoft YaHei, SimHei, sans-serif">管理员</text>
<text x="1080.0" y="537.0" text-anchor="middle" font-size="12" font-weight="bold" fill="#FFFFFF" font-family="Microsoft YaHei, SimHei, sans-serif">(SysUser)</text>
<line x1="960" y1="556" x2="1200" y2="556" stroke="#2B579A" stroke-width="2"/>
<rect x="962" y="543" width="236" height="20" fill="#F0F4FA" rx="1"/>
<text x="968" y="558" font-size="10" fill="#1A1A1A" font-family="Consolas, Courier New, monospace" font-weight="bold">user_id  <tspan fill="#888" font-weight="normal">INT</tspan>  <tspan fill="#2B579A">[PK]</tspan></text>
<rect x="962" y="563" width="236" height="20" fill="#FFF8E1" rx="1"/>
<text x="968" y="578" font-size="10" fill="#1A1A1A" font-family="Consolas, Courier New, monospace">username  <tspan fill="#888">VARCHAR(30)</tspan>  <tspan fill="#E67E22">[FK]</tspan></text>
<text x="968" y="598" font-size="10" fill="#1A1A1A" font-family="Consolas, Courier New, monospace">password  <tspan fill="#888">VARCHAR(255)</tspan></text>
<text x="968" y="618" font-size="10" fill="#1A1A1A" font-family="Consolas, Courier New, monospace">real_name  <tspan fill="#888">VARCHAR(30)</tspan></text>
<text x="968" y="638" font-size="10" fill="#1A1A1A" font-family="Consolas, Courier New, monospace">role  <tspan fill="#888">VARCHAR(20)</tspan></text>
<text x="968" y="658" font-size="10" fill="#1A1A1A" font-family="Consolas, Courier New, monospace">created_at  <tspan fill="#888">DATETIME</tspan></text>
<rect x="30" y="870" width="700" height="78" fill="white" stroke="#CCC" rx="5"/>
<text x="50" y="892" font-size="13" font-weight="bold" fill="#333" font-family="Microsoft YaHei, SimHei, sans-serif">图例 Legend</text>
<rect x="50" y="906" width="14" height="14" fill="#F0F4FA" rx="1" stroke="#CCC"/>
<text x="70" y="916" font-size="10" fill="#333" font-family="Microsoft YaHei, SimHei, sans-serif">[PK] 主键 Primary Key</text>
<rect x="210" y="906" width="14" height="14" fill="#FFF8E1" rx="1" stroke="#CCC"/>
<text x="230" y="916" font-size="10" fill="#333" font-family="Microsoft YaHei, SimHei, sans-serif">[FK] 外键 Foreign Key</text>
<text x="390" y="916" font-size="10" fill="#333" font-family="Microsoft YaHei, SimHei, sans-serif">── 引用线 Reference Line</text>
<text x="70" y="940" font-size="10" fill="#333" font-family="Microsoft YaHei, SimHei, sans-serif">N:1  多对一  ·  1:1  一对一  ·  1:N  一对多</text>
</svg>